<svg width="120" height="120" viewBox="0 0 120 120" fill="none" xmlns="http://www.w3.org/2000/svg">
<g transform="translate(10, -52)">
<path d="M88.9337 141.468C85.0512 145.752 80.4291 149.059 75.1414 151.351C69.8537 153.643 64.0484 154.808 57.8363 154.808C50.1821 154.808 43.3414 152.967 37.2403 149.322C32.5073 146.466 28.5877 142.784 25.4447 138.274L12.8357 149.134C16.7552 154.357 21.5622 158.716 27.1826 162.248C27.6633 162.624 28.181 162.924 28.6987 163.225C37.3512 168.373 47.0761 170.966 57.8363 170.966C66.267 170.966 74.1061 169.388 81.3535 166.194C88.6009 163.037 94.776 158.528 99.9528 152.666L88.9337 141.468ZM75.0305 74.0941C80.2442 76.3862 84.7184 79.6554 88.49 83.9391L99.4721 72.5159C94.4802 66.8418 88.3791 62.4078 81.2426 59.2139C74.0321 56.0574 66.267 54.4792 57.8363 54.4792C57.3926 54.4792 56.9119 54.4792 56.4682 54.5168V70.6746C56.9119 70.6746 57.3926 70.6746 57.8363 70.6746C64.0484 70.6746 69.7798 71.8019 75.0305 74.1316V74.0941ZM22.9673 90.9658C25.1119 87.0579 27.7373 83.676 30.8803 80.8202L20.3049 68.1194C15.498 72.2153 11.4675 77.1753 8.21357 82.8869C3.36962 91.4167 0.89218 100.961 0.78125 111.558H17.8645C17.9754 103.854 19.6763 96.978 22.9673 90.9658Z" fill="#3076E2"/>
</g>
</svg>
